# xmcd CD database file
#
# Track frame offsets:
#	150
#	19010
#	33026
#	52737
#	68566
#	83200
#	105160
#	120880
#	140406
#	162311
#	181639
#
# Disc length: 2668 seconds
#
# Revision: 0
# Processed by: cddbd v1.5.2PL0 Copyright (c) Steve Scherf et al.
# Submitted via: CDex 1.83
#
DISCID=6f0a6a0b
DTITLE=Leroy Jones - Sweeter than a summer breeze
DYEAR=2009
DGENRE=Jazz
TTITLE0=Yesterdays
TTITLE1=I remember Clifford
TTITLE2=In a sentimental mood
TTITLE3=My funny Valentine
TTITLE4=Katrina
TTITLE5=Willow weep for me
TTITLE6=Life is not always fair
TTITLE7=Melancholy Serenade
TTITLE8=My one and only love
TTITLE9=Stars Fell on Alabama
TTITLE10=Sweeter than a summer breeze
EXTD=YEAR: 2009
EXTT0=
EXTT1=
EXTT2=
EXTT3=
EXTT4=
EXTT5=
EXTT6=
EXTT7=
EXTT8=
EXTT9=
EXTT10=
PLAYORDER=
